# File created by Blade
# Date/Time:  Tue Apr 07 20:49:23 2015
# Frame Rate: 120.000 fps
#------------------------------------------------------
:FULLY-SPECIFIED
:DEGREES
573
root 1.058941 34.097913 -6.211346 -22.651916 52.346480 -112.426322
Spine -42.847107 -10.237767 34.994689
Head -10.929336 26.190229 33.920714
LeftShoulder -24.236570 37.099561 31.916871
LeftArm 78.589656 -72.040733 -74.568360
LeftForeArm 13.695721 -0.000000 10.362898
LeftHand 6.624643 -0.000000 14.377164
LeftHandThumb1 -26.253704 0.000000 33.147579
RightShoulder -23.808909 -8.620009 -26.420477
RightArm -20.527642 36.133066 25.595621
RightForeArm 64.072703 -0.000000 -3.110998
RightHand 3.319885 -0.000000 17.390740
RightHandThumb1 -24.326973 -0.000000 -32.862282
LeftUpLeg -78.339496 31.708400 31.453287
LeftLeg -3.561426 -0.000000 0.000000
LeftFoot 4.420401 19.423526 0.689473
LeftToeBase -13.997534 -0.000000 0.000000
RightUpLeg 31.679325 21.256886 -18.154756
RightLeg 62.533256 -0.000000 -0.000000
RightFoot 54.958586 10.442621 -1.153141
RightToeBase 8.044554 -0.000000 -0.000000
574
root 1.045206 34.100828 -6.197580 -22.468929 52.220214 -112.405217
Spine -42.885661 -10.266325 35.024597
Head -10.879370 26.314524 34.024601
LeftShoulder -24.320561 37.133183 31.858005
LeftArm 78.928250 -72.041518 -74.813807
LeftForeArm 13.708588 -0.000000 10.344802
LeftHand 6.688614 -0.000000 14.404404
LeftHandThumb1 -26.253704 0.000000 33.147579
RightShoulder -23.801486 -8.574135 -26.430218
RightArm -20.576950 36.168897 25.513931
RightForeArm 63.976672 -0.000000 -3.024805
RightHand 3.214090 -0.000000 17.249495
RightHandThumb1 -24.326973 -0.000000 -32.862282
LeftUpLeg -78.679826 32.044706 31.153855
LeftLeg -3.337085 -0.000000 0.000000
LeftFoot 3.864431 18.962224 -0.299152
LeftToeBase -13.809742 -0.000000 0.000000
RightUpLeg 31.730321 21.245745 -18.075568
RightLeg 62.459308 -0.000000 -0.000000
RightFoot 54.967617 10.470793 -1.135817
RightToeBase 8.019042 -0.000000 -0.000000
575
root 1.032707 34.103278 -6.184817 -22.314418 52.091632 -112.427017
Spine -42.936606 -10.295872 35.097032
Head -10.832975 26.451977 34.113657
LeftShoulder -24.328141 37.083303 31.889204
LeftArm 79.067814 -72.040428 -74.977981
LeftForeArm 13.731672 -0.000000 10.422979
LeftHand 6.659859 0.000000 14.458792
LeftHandThumb1 -26.253704 0.000000 33.147579
RightShoulder -23.800984 -8.521592 -26.431044
RightArm -20.587458 36.161068 25.457111
RightForeArm 63.940243 -0.000000 -2.965291
RightHand 3.254035 -0.000000 17.089900
RightHandThumb1 -24.326973 -0.000000 -32.862282
LeftUpLeg -79.099389 32.395164 30.770416
LeftLeg -3.090973 -0.000000 0.000000
LeftFoot 3.254104 18.366827 -1.414806
LeftToeBase -13.549788 -0.000000 0.000000
RightUpLeg 31.766746 21.212125 -17.996901
RightLeg 62.373289 -0.000000 -0.000000
RightFoot 54.981244 10.568905 -1.121362
RightToeBase 7.750416 -0.000000 -0.000000
576
root 1.020997 34.104337 -6.170665 -22.198934 51.979016 -112.469266
Spine -42.989649 -10.341143 35.152964
Head -10.787983 26.468508 34.226489
LeftShoulder -24.356211 37.087235 31.872681
LeftArm 79.549989 -72.041718 -75.410797
LeftForeArm 13.841786 -0.000000 10.497832
LeftHand 6.648494 -0.000000 14.514570
LeftHandThumb1 -26.253704 0.000000 33.147579
RightShoulder -23.800182 -8.472504 -26.439246
RightArm -20.683368 36.276554 25.330317
RightForeArm 63.760209 -0.000000 -2.867927
RightHand 3.177763 -0.000000 16.960816
RightHandThumb1 -24.326973 -0.000000 -32.862282
LeftUpLeg -79.457032 32.707625 30.462506
LeftLeg -2.866135 -0.000000 0.000000
LeftFoot 2.603607 17.809919 -2.559422
LeftToeBase -13.221771 -0.000000 0.000000
RightUpLeg 31.835644 21.165307 -17.896604
RightLeg 62.286244 -0.000000 -0.000000
RightFoot 54.964830 10.644922 -1.040239
RightToeBase 7.816762 -0.000000 -0.000000
577
root 1.012716 34.105769 -6.155885 -22.076305 51.843672 -112.498619
Spine -43.028486 -10.373814 35.211737
Head -10.762985 26.526314 34.341122
LeftShoulder -24.329961 37.028921 31.934978
LeftArm 79.814193 -72.039257 -75.726318
LeftForeArm 13.981228 0.000000 10.669828
LeftHand 6.558622 -0.000000 14.550181
LeftHandThumb1 -26.253704 0.000000 33.147579
RightShoulder -23.820414 -8.409392 -26.395226
RightArm -20.692831 36.286227 25.216423
RightForeArm 63.763637 -0.000000 -2.867585
RightHand 3.162534 -0.000000 16.994822
RightHandThumb1 -24.326973 -0.000000 -32.862282
LeftUpLeg -79.737368 33.029202 30.208326
LeftLeg -2.702941 -0.000000 0.000000
LeftFoot 1.960361 17.272176 -3.730538
LeftToeBase -12.722442 -0.000000 0.000000
RightUpLeg 31.871301 21.121801 -17.822193
RightLeg 62.219758 -0.000000 -0.000000
RightFoot 55.002184 10.648659 -0.890897
RightToeBase 7.800022 -0.000000 -0.000000
578
root 1.007824 34.106955 -6.140637 -21.962075 51.715409 -112.539348
Spine -43.086007 -10.408580 35.279620
Head -10.698334 26.611436 34.485371
LeftShoulder -24.342612 37.025448 31.919908
LeftArm 80.015298 -72.027118 -75.878064
LeftForeArm 13.984628 -0.000000 10.800353
LeftHand 6.637357 -0.000000 14.696929
LeftHandThumb1 -26.253704 0.000000 33.147579
RightShoulder -23.866625 -8.374652 -26.330696
RightArm -20.657512 36.307462 25.113972
RightForeArm 63.730448 -0.000000 -2.873305
RightHand 3.149188 -0.000000 16.936378
RightHandThumb1 -24.326973 -0.000000 -32.862282
LeftUpLeg -80.015175 33.342470 29.901693
LeftLeg -2.617664 -0.000000 0.000000
LeftFoot 1.408043 16.724159 -4.871306
LeftToeBase -12.292767 -0.000000 0.000000
RightUpLeg 31.905125 21.053960 -17.749410
RightLeg 62.150364 -0.000000 -0.000000
RightFoot 55.081071 10.628505 -0.747919
RightToeBase 7.540755 -0.000000 -0.000000
579
root 1.003591 34.109492 -6.125737 -21.798427 51.610037 -112.551038
Spine -43.190536 -10.445223 35.326637
Head -10.609068 26.710434 34.647875
LeftShoulder -24.314254 37.040518 31.957962
LeftArm 80.359687 -72.020659 -76.239909
LeftForeArm 14.157110 -0.000000 10.969268
LeftHand 6.656771 0.000000 14.841306
LeftHandThumb1 -26.253704 0.000000 33.147579
RightShoulder -23.871548 -8.318159 -26.266920
RightArm -20.678549 36.238598 24.997431
RightForeArm 63.852597 -0.000000 -2.862041
RightHand 3.149950 -0.000000 17.013125
RightHandThumb1 -24.326973 -0.000000 -32.862282
LeftUpLeg -80.320865 33.657975 29.515513
LeftLeg -2.615132 -0.000000 0.000000
LeftFoot 0.897033 16.209980 -6.053772
LeftToeBase -11.535068 -0.000000 0.000000
RightUpLeg 31.908391 20.965700 -17.709029
RightLeg 62.107461 -0.000000 -0.000000
RightFoot 55.118367 10.545535 -0.654201
RightToeBase 7.372337 -0.000000 -0.000000
580
root 1.003762 34.114931 -6.107557 -21.694256 51.486865 -112.644195
Spine -43.317698 -10.472082 35.423913
Head -10.500740 26.724564 34.829229
LeftShoulder -24.275092 37.056485 31.987183
LeftArm 80.532809 -71.999917 -76.372916
LeftForeArm 14.287078 -0.000000 11.104392
LeftHand 6.626939 -0.000000 14.931299
LeftHandThumb1 -26.253704 0.000000 33.147579
RightShoulder -23.859516 -8.255493 -26.228982
RightArm -20.809508 36.323790 24.779150
RightForeArm 63.709677 0.000000 -2.816162
RightHand 3.113662 -0.000000 17.043561
RightHandThumb1 -24.326973 -0.000000 -32.862282
LeftUpLeg -80.712878 34.011429 29.006583
LeftLeg -2.661905 -0.000000 0.000000
LeftFoot 0.497559 15.501632 -7.482495
LeftToeBase -10.829527 -0.000000 0.000000
RightUpLeg 31.893036 20.838184 -17.636629
RightLeg 62.061119 -0.000000 -0.000000
RightFoot 55.171776 10.421351 -0.590762
RightToeBase 7.150157 -0.000000 -0.000000
581
root 1.005716 34.122817 -6.090698 -21.590741 51.366172 -112.760751
Spine -43.448480 -10.478129 35.541453
Head -10.435744 26.871135 34.947273
LeftShoulder -24.248513 37.054328 31.976919
LeftArm 80.378388 -71.974239 -76.120120
LeftForeArm 14.259433 0.000000 11.203802
LeftHand 6.690165 -0.000000 15.009009
LeftHandThumb1 -26.253704 0.000000 33.147579
RightShoulder -23.892785 -8.140008 -26.221442
RightArm -20.902287 36.275100 24.617844
RightForeArm 63.677354 -0.000000 -2.758269
RightHand 3.093877 -0.000000 17.033804
RightHandThumb1 -24.326973 -0.000000 -32.862282
LeftUpLeg -81.183980 34.383081 28.402236
LeftLeg -2.708490 -0.000000 0.000000
LeftFoot 0.136625 14.682521 -9.014081
LeftToeBase -10.032276 -0.000000 0.000000
RightUpLeg 31.845893 20.698014 -17.562002
RightLeg 62.034828 -0.000000 -0.000000
RightFoot 55.190740 10.373469 -0.559258
RightToeBase 7.262480 -0.000000 -0.000000
582
root 1.007336 34.131735 -6.074553 -21.459674 51.269835 -112.830859
Spine -43.583412 -10.499142 35.589632
Head -10.372640 26.896245 35.147218
LeftShoulder -24.196429 37.080418 32.025803
LeftArm 80.397522 -71.934843 -76.089652
LeftForeArm 14.323431 -0.000000 11.339201
LeftHand 6.687057 -0.000000 15.010239
LeftHandThumb1 -26.253704 0.000000 33.147579
RightShoulder -23.921963 -8.097535 -26.196485
RightArm -21.020238 36.364915 24.458500
RightForeArm 63.580116 -0.000000 -2.668038
RightHand 3.079258 0.000000 16.990366
RightHandThumb1 -24.326973 -0.000000 -32.862282
LeftUpLeg -81.708020 34.754098 27.668939
LeftLeg -2.762292 -0.000000 0.000000
LeftFoot -0.171100 13.746141 -10.717027
LeftToeBase -9.366327 -0.000000 0.000000
RightUpLeg 31.813132 20.549262 -17.543153
RightLeg 62.012991 -0.000000 -0.000000
RightFoot 55.191780 10.339843 -0.509440
RightToeBase 7.333725 -0.000000 -0.000000
583
root 1.007579 34.142955 -6.058841 -21.306080 51.176543 -112.905161
Spine -43.748153 -10.515108 35.625736
Head -10.310747 26.809731 35.411614
LeftShoulder -24.122398 37.127856 32.128974
LeftArm 80.439618 -71.880583 -76.078053
LeftForeArm 14.273206 -0.000000 11.426956
LeftHand 6.741178 0.000000 14.982330
LeftHandThumb1 -26.253704 0.000000 33.147579
RightShoulder -23.921126 -8.063886 -26.172692
RightArm -21.154368 36.403342 24.319504
RightForeArm 63.547749 -0.000000 -2.582222
RightHand 3.051161 -0.000000 16.978586
RightHandThumb1 -24.326973 -0.000000 -32.862282
LeftUpLeg -82.303322 35.138011 26.881803
LeftLeg -2.795694 -0.000000 0.000000
LeftFoot -0.437684 12.814818 -12.407051
LeftToeBase -8.641427 -0.000000 0.000000
RightUpLeg 31.749777 20.400759 -17.532892
RightLeg 62.002566 -0.000000 -0.000000
RightFoot 55.189297 10.290423 -0.399816
RightToeBase 7.464952 -0.000000 -0.000000
584
root 1.009192 34.153963 -6.043589 -21.203459 51.099972 -112.995907
Spine -43.856524 -10.561125 35.689274
Head -10.312407 26.985915 35.577047
LeftShoulder -24.114574 37.088822 32.124020
LeftArm 80.210371 -71.838521 -75.695903
LeftForeArm 14.292987 -0.000000 11.464579
LeftHand 6.708324 0.000000 14.955232
LeftHandThumb1 -26.253704 0.000000 33.147579
RightShoulder -23.970847 -7.972145 -26.193611
RightArm -21.267766 36.459365 24.204377
RightForeArm 63.479703 -0.000000 -2.465304
RightHand 3.029079 -0.000000 16.942373
RightHandThumb1 -24.326973 -0.000000 -32.862282
LeftUpLeg -82.935563 35.486860 26.024882
LeftLeg -2.801567 -0.000000 0.000000
LeftFoot -0.696662 11.765263 -14.111622
LeftToeBase -7.632014 -0.000000 0.000000
RightUpLeg 31.742737 20.243029 -17.512373
RightLeg 61.956120 -0.000000 -0.000000
RightFoot 55.203240 10.308500 -0.330525
RightToeBase 7.349601 -0.000000 -0.000000
585
root 1.010147 34.164731 -6.026020 -21.112640 51.013630 -113.068439
Spine -43.933148 -10.626092 35.720420
Head -10.367486 27.029524 35.784163
LeftShoulder -24.146113 37.075823 32.123103
LeftArm 80.256856 -71.766945 -75.561760
LeftForeArm 14.305680 -0.000000 11.461957
LeftHand 6.824583 0.000000 14.918749
LeftHandThumb1 -26.253704 0.000000 33.147579
RightShoulder -24.023934 -7.929029 -26.166498
RightArm -21.311398 36.570062 24.102228
RightForeArm 63.374174 -0.000000 -2.412081
RightHand 3.043046 -0.000000 16.907333
RightHandThumb1 -24.326973 -0.000000 -32.862282
LeftUpLeg -83.493484 35.835848 25.252734
LeftLeg -2.808481 -0.000000 0.000000
LeftFoot -0.876547 10.744826 -15.755452
LeftToeBase -6.865413 -0.000000 0.000000
RightUpLeg 31.757063 20.098603 -17.512414
RightLeg 61.915922 -0.000000 -0.000000
RightFoot 55.228521 10.330868 -0.301390
RightToeBase 7.215419 -0.000000 -0.000000
